<?xml version="1.0" encoding="UTF-8" standalone="no"?>
<!-- Created with Inkscape (http://www.inkscape.org/) -->

<svg
   width="210mm"
   height="210mm"
   viewBox="0 0 210 210"
   version="1.1"
   id="svg1"
   xml:space="preserve"
   inkscape:version="1.3 (0e150ed, 2023-07-21)"
   sodipodi:docname="cfde_unified_icon.svg"
   xmlns:inkscape="http://www.inkscape.org/namespaces/inkscape"
   xmlns:sodipodi="http://sodipodi.sourceforge.net/DTD/sodipodi-0.dtd"
   xmlns="http://www.w3.org/2000/svg"
   xmlns:svg="http://www.w3.org/2000/svg"><sodipodi:namedview
     id="namedview1"
     pagecolor="#ffffff"
     bordercolor="#000000"
     borderopacity="0.25"
     inkscape:showpageshadow="2"
     inkscape:pageopacity="0.0"
     inkscape:pagecheckerboard="0"
     inkscape:deskcolor="#d1d1d1"
     inkscape:document-units="mm"
     showguides="true"
     inkscape:zoom="0.55651198"
     inkscape:cx="357.58439"
     inkscape:cy="390.82716"
     inkscape:window-width="1456"
     inkscape:window-height="834"
     inkscape:window-x="0"
     inkscape:window-y="38"
     inkscape:window-maximized="0"
     inkscape:current-layer="g2" /><defs
     id="defs1"><clipPath
       id="clip0_2_8"><rect
         width="600.94501"
         height="612.28302"
         fill="#ffffff"
         id="rect26"
         x="0"
         y="0" /></clipPath></defs><g
     inkscape:label="Layer 1"
     inkscape:groupmode="layer"
     id="layer1"><g
       style="fill:none"
       id="g2"
       transform="matrix(0.26458333,0,0,0.26458333,59.561417,83.911458)"><ellipse
         style="fill:#e0e9fd;fill-opacity:1;stroke:none;stroke-width:4.69404"
         id="path12"
         cx="152.34889"
         cy="106.45302"
         rx="309.74597"
         ry="312.63983"
         transform="rotate(-9.7509259)"
         inkscape:export-filename="cfde_unified_icon.png"
         inkscape:export-xdpi="96"
         inkscape:export-ydpi="96" /><path
         d="m 76.357826,-38.671113 91.724804,124.5037 91.431,-125.2843 -91.257,-66.145487 z"
         fill="#cd5230"
         stroke="#cd5230"
         stroke-width="1.91424"
         stroke-linejoin="round"
         id="path1-6" /><path
         d="m 351.20663,27.010187 -91.693,-66.4619 -91.43,125.2849 148.332,48.664003 z"
         fill="#ecaa4b"
         stroke="#ecaa4b"
         stroke-width="1.91424"
         stroke-linejoin="round"
         id="path2-2" /><path
         d="m 281.62383,241.98329 34.792,-107.487 -148.333,-48.664003 0.22,156.279003 z"
         fill="#7cb27c"
         stroke="#7cb27c"
         stroke-width="1.91424"
         stroke-linejoin="round"
         id="path3-4" /><path
         d="m 55.669826,242.23829 112.633004,-0.127 -0.22,-156.278003 -147.445704,48.996003 z"
         fill="#5a909b"
         stroke="#5a909b"
         stroke-width="1.91424"
         stroke-linejoin="round"
         id="path4-7" /><path
         d="m 20.637126,134.82929 147.445904,-48.996003 -91.725204,-124.5044 -90.75329,66.0924 z"
         fill="#544f77"
         stroke="#544f77"
         stroke-width="1.91424"
         stroke-linejoin="round"
         id="path5-4" /><path
         d="m 191.284,315.325 c 63.947,0 115.787,-51.768 115.787,-115.627 0,-63.859 -51.84,-115.6273 -115.787,-115.6273 -63.947,0 -115.786,51.7683 -115.786,115.6273 0,63.859 51.839,115.627 115.786,115.627 z"
         fill="#9f9f9f"
         id="path13"
         style="opacity:1;mix-blend-mode:soft-light;fill:#000000"
         transform="translate(-23.061177,-114.01271)" /><path
         d="m 168.08283,141.86529 c 30.946,0 56.032,-25.086 56.032,-56.032003 0,-30.945 -25.086,-56.032 -56.032,-56.032 -30.945,0 -56.032,25.087 -56.032,56.032 0,30.946003 25.087,56.032003 56.032,56.032003 z"
         fill="#e2e8ee"
         id="path7-8"
         style="fill:#e0e9fd;fill-opacity:1" /><g
         id="g12"
         transform="translate(0,-8)"><path
           d="m 420.20105,81.104177 c 20.01036,-3.43874 33.44394,-22.44746 30.0052,-42.45782 C 446.76761,18.636647 427.75878,5.2024371 407.74843,8.6411771 387.73874,12.079797 374.30462,31.089287 377.74325,51.098987 c 3.43874,20.01035 22.44811,33.44382 42.4578,30.00519 z"
           fill="#e2e8ee"
           id="path3"
           style="fill:#2a5ca9;fill-opacity:1;stroke-width:0.6561" /><path
           d="m 390.10027,250.458 c 20.01035,-3.43874 33.44393,-22.44746 30.00519,-42.45782 -3.43863,-20.00971 -22.44746,-33.44393 -42.45781,-30.00518 -20.0097,3.43863 -33.44382,22.44811 -30.00518,42.45781 3.43873,20.01035 22.44811,33.44381 42.4578,30.00519 z"
           fill="#e2e8ee"
           id="path4"
           style="fill:#2a5ca9;fill-opacity:1;stroke-width:0.6561" /><path
           d="m 259.07268,360.33375 c 20.01036,-3.43874 33.44393,-22.44746 30.00519,-42.45782 -3.43864,-20.00971 -22.44747,-33.44393 -42.45782,-30.00518 -20.00968,3.43862 -33.4438,22.4481 -30.00517,42.45781 3.43873,20.01035 22.44811,33.44381 42.4578,30.00519 z"
           fill="#e2e8ee"
           id="path5"
           style="fill:#2a5ca9;fill-opacity:1;stroke-width:0.6561" /><path
           d="m 88.427536,359.31932 c 20.010364,-3.43874 33.443934,-22.44746 30.005194,-42.45781 -3.43862,-20.00971 -22.447464,-33.44393 -42.457811,-30.00519 -20.009704,3.43863 -33.443815,22.44811 -30.005184,42.45782 3.438739,20.01034 22.448107,33.44381 42.457801,30.00518 z"
           fill="#e2e8ee"
           id="path6"
           style="fill:#2a5ca9;fill-opacity:1;stroke-width:0.6561" /><path
           d="m -41.988393,247.8894 c 20.01035,-3.43874 33.4439248,-22.44746 30.005185,-42.45782 -3.438629,-20.00971 -22.44746,-33.44393 -42.457811,-30.00519 -20.009703,3.43864 -33.443814,22.44812 -30.005185,42.45783 3.43874,20.01034 22.448107,33.44381 42.457811,30.00518 z"
           fill="#e2e8ee"
           id="path7"
           style="fill:#2a5ca9;fill-opacity:1;stroke-width:0.6561" /><path
           d="m -71.152028,78.183277 c 20.010349,-3.43874 33.443925,-22.44746 30.005185,-42.45781 -3.438629,-20.00971 -22.447462,-33.4439299 -42.457811,-30.0051899 -20.009706,3.43863 -33.443816,22.4481099 -30.005176,42.4578199 3.43873,20.01034 22.448098,33.44381 42.457802,30.00518 z"
           fill="#e2e8ee"
           id="path8"
           style="fill:#2a5ca9;fill-opacity:1;stroke-width:0.6561" /><path
           d="m 14.582592,-70.391624 c 20.010349,-3.438739 33.443928,-22.44746 30.005188,-42.457816 -3.438629,-20.0097 -22.447464,-33.44392 -42.4578142,-30.00518 -20.0097028,3.43863 -33.4438128,22.44811 -30.0051838,42.45781 3.438739,20.010352 22.4481058,33.443816 42.45781,30.005186 z"
           fill="#e2e8ee"
           id="path9"
           style="fill:#2a5ca9;fill-opacity:1;stroke-width:0.6561" /><path
           d="m 175.0994,-128.31552 c 20.01035,-3.43874 33.44392,-22.44746 30.00519,-42.45781 -3.43863,-20.00971 -22.44747,-33.44393 -42.45782,-30.00519 -20.00969,3.43863 -33.44381,22.44811 -30.00518,42.45781 3.43873,20.01035 22.44811,33.44382 42.45781,30.00519 z"
           fill="#e2e8ee"
           id="path10"
           style="fill:#2a5ca9;fill-opacity:1;stroke-width:0.6561" /><path
           d="m 335.29058,-68.485127 c 20.01036,-3.43874 33.44393,-22.447461 30.0052,-42.457813 -3.43863,-20.0097 -22.44746,-33.44392 -42.45781,-30.00518 -20.0097,3.43863 -33.44382,22.4481 -30.00519,42.457807 3.43872,20.010351 22.44811,33.443814 42.4578,30.005186 z"
           fill="#e2e8ee"
           id="path11"
           style="fill:#2a5ca9;fill-opacity:1;stroke-width:0.6561" /></g></g></g></svg>
