<svg width="576" height="288" viewBox="0 0 576 288" fill="none" xmlns="http://www.w3.org/2000/svg">
<path d="M206.3 169.21C202.86 167.36 200.23 164.66 198.42 161.11C196.61 157.56 195.7 153.28 195.7 148.26V130.79C195.7 125.77 196.6 121.49 198.42 117.94C200.23 114.39 202.86 111.69 206.3 109.82C209.74 107.95 213.89 107.02 218.73 107.02C222.73 107.02 226.3 107.88 229.46 109.6C232.61 111.32 235.22 113.83 237.27 117.11C239.33 120.39 240.75 124.36 241.54 129H229.11C228.64 126.9 227.92 125.1 226.94 123.61C225.96 122.12 224.78 120.98 223.39 120.2C222 119.41 220.45 119.02 218.73 119.02C216.48 119.02 214.57 119.48 213 120.4C211.42 121.32 210.22 122.66 209.39 124.43C208.56 126.2 208.14 128.32 208.14 130.8V148.27C208.14 150.75 208.56 152.87 209.39 154.62C210.22 156.37 211.43 157.71 213 158.63C214.58 159.55 216.49 160.01 218.73 160.01C220.48 160.01 222.06 159.62 223.46 158.85C224.86 158.08 226.04 156.95 227.01 155.46C227.97 153.97 228.67 152.16 229.11 150.03H241.54C240.72 154.67 239.28 158.63 237.23 161.92C235.17 165.2 232.57 167.71 229.44 169.43C226.31 171.15 222.73 172.01 218.74 172.01C213.89 171.99 209.74 171.06 206.3 169.21Z" fill="#2B7ABD"/>
<path d="M255.71 169.67C252.78 168.12 250.54 165.87 249.01 162.91C247.48 159.95 246.71 156.38 246.71 152.21V144.81C246.71 140.69 247.48 137.17 249.01 134.24C250.54 131.31 252.77 129.07 255.71 127.54C258.64 126.01 262.18 125.24 266.33 125.24C270.47 125.24 274.01 126.01 276.95 127.54C279.88 129.07 282.12 131.31 283.65 134.24C285.18 137.17 285.95 140.7 285.95 144.81V152.34C285.95 156.48 285.18 160.02 283.65 162.96C282.12 165.89 279.89 168.13 276.95 169.68C274.02 171.23 270.48 172 266.33 172C262.18 171.99 258.64 171.22 255.71 169.67ZM271.93 158.31C273.27 156.89 273.94 154.9 273.94 152.33V144.8C273.94 142.26 273.27 140.29 271.93 138.89C270.59 137.49 268.7 136.79 266.28 136.79C263.89 136.79 262.03 137.49 260.7 138.89C259.37 140.29 258.71 142.26 258.71 144.8V152.33C258.71 154.9 259.37 156.89 260.68 158.31C261.99 159.73 263.86 160.43 266.28 160.43C268.7 160.43 270.59 159.72 271.93 158.31Z" fill="#2B7ABD"/>
<path d="M293.3 125.89H305.3V171.34H293.3V125.89ZM319.79 145.11C319.79 142.45 319.13 140.4 317.82 138.96C316.51 137.52 314.65 136.79 312.26 136.79C310.04 136.79 308.33 137.41 307.11 138.65C305.9 139.89 305.29 141.63 305.29 143.88L304.37 133.81C305.71 131.01 307.39 128.88 309.41 127.42C311.42 125.96 313.79 125.23 316.5 125.23C319.71 125.23 322.46 126 324.75 127.55C327.04 129.1 328.78 131.36 329.98 134.34C331.18 137.32 331.78 140.89 331.78 145.07V171.34H319.78V145.11H319.79ZM346.28 145.11C346.28 142.45 345.65 140.4 344.38 138.96C343.11 137.52 341.31 136.79 338.97 136.79C336.66 136.79 334.89 137.48 333.65 138.87C332.41 140.26 331.79 142.22 331.79 144.76L329.56 134.25C330.99 131.36 332.85 129.14 335.14 127.57C337.43 126.01 339.98 125.23 342.78 125.23C346.05 125.23 348.84 126 351.16 127.55C353.48 129.1 355.25 131.36 356.46 134.34C357.67 137.32 358.28 140.89 358.28 145.07V171.34H346.28V145.11Z" fill="#2B7ABD"/>
<path d="M367.38 107.67H379.38V171.33H367.38V107.67ZM372.85 135.08H393.21C394.64 135.08 395.9 134.75 397 134.09C398.09 133.43 398.95 132.51 399.56 131.31C400.17 130.11 400.48 128.74 400.48 127.19C400.48 125.61 400.18 124.22 399.58 123.01C398.98 121.8 398.14 120.86 397.04 120.21C395.95 119.55 394.67 119.22 393.21 119.22H372.85V107.66H392.9C396.87 107.66 400.37 108.47 403.39 110.09C406.41 111.71 408.75 113.99 410.42 116.94C412.08 119.89 412.92 123.3 412.92 127.19C412.92 131.07 412.09 134.48 410.42 137.41C408.76 140.34 406.41 142.61 403.39 144.22C400.37 145.83 396.87 146.63 392.9 146.63H372.85V135.08Z" fill="#2B7ABD"/>
<path d="M430.3 107.67H437.92L462.26 171.33H449.34L434.11 127.85L418.87 171.33H405.95L430.3 107.67ZM417.64 149.57H451.13V161.13H417.64V149.57Z" fill="#2B7ABD"/>
<path d="M477.73 171.07C474.83 170.46 472.1 169.56 469.54 168.38C466.99 167.2 464.7 165.77 462.69 164.11L468.25 154.22C470.7 156.23 473.53 157.79 476.74 158.88C479.95 159.97 483.25 160.52 486.64 160.52C490.55 160.52 493.59 159.86 495.75 158.53C497.91 157.2 498.99 155.33 498.99 152.9V152.86C498.99 151.17 498.51 149.82 497.54 148.83C496.58 147.84 495.32 147.11 493.78 146.64C492.23 146.17 490.25 145.75 487.83 145.37C487.74 145.34 487.66 145.33 487.59 145.33C487.52 145.33 487.44 145.32 487.35 145.29L486.39 145.16C482.13 144.49 478.6 143.65 475.79 142.64C472.99 141.63 470.61 139.87 468.65 137.34C466.69 134.82 465.72 131.23 465.72 126.59V126.55C465.72 122.43 466.64 118.92 468.48 116C470.32 113.08 472.99 110.86 476.49 109.32C479.99 107.79 484.22 107.02 489.19 107.02C491.47 107.02 493.79 107.28 496.17 107.81C498.55 108.34 500.88 109.1 503.15 110.09C505.43 111.08 507.59 112.28 509.63 113.68L504.55 123.84C502.1 122.15 499.54 120.83 496.87 119.9C494.2 118.97 491.64 118.5 489.19 118.5C485.51 118.5 482.67 119.11 480.65 120.32C478.64 121.53 477.63 123.23 477.63 125.42V125.46C477.63 127.3 478.16 128.75 479.21 129.82C480.26 130.89 481.56 131.67 483.11 132.16C484.66 132.66 486.83 133.18 489.63 133.74C489.75 133.77 489.86 133.79 489.98 133.81C490.1 133.82 490.21 133.85 490.33 133.88C490.5 133.91 490.67 133.95 490.83 133.99C490.99 134.03 491.16 134.07 491.33 134.1C495.36 134.89 498.72 135.84 501.42 136.97C504.12 138.09 506.37 139.9 508.18 142.4C509.99 144.9 510.89 148.3 510.89 152.62V152.71C510.89 156.77 509.94 160.24 508.04 163.13C506.14 166.02 503.38 168.22 499.74 169.74C496.11 171.26 491.73 172.02 486.63 172.02C483.61 171.99 480.64 171.68 477.73 171.07Z" fill="#2B7ABD"/>
<path d="M531.19 171.07C528.29 170.46 525.56 169.56 523 168.38C520.44 167.2 518.16 165.77 516.15 164.11L521.71 154.22C524.16 156.23 526.99 157.79 530.2 158.88C533.41 159.97 536.71 160.52 540.1 160.52C544.01 160.52 547.05 159.86 549.21 158.53C551.37 157.2 552.45 155.33 552.45 152.9V152.86C552.45 151.17 551.97 149.82 551 148.83C550.04 147.84 548.78 147.11 547.24 146.64C545.69 146.17 543.71 145.75 541.29 145.37C541.2 145.34 541.12 145.33 541.05 145.33C540.98 145.33 540.9 145.32 540.81 145.29L539.85 145.16C535.59 144.49 532.06 143.65 529.25 142.64C526.45 141.63 524.07 139.87 522.11 137.34C520.15 134.82 519.18 131.23 519.18 126.59V126.55C519.18 122.43 520.1 118.92 521.94 116C523.78 113.08 526.45 110.86 529.95 109.32C533.45 107.79 537.68 107.02 542.65 107.02C544.93 107.02 547.25 107.28 549.63 107.81C552.01 108.34 554.34 109.1 556.61 110.09C558.89 111.08 561.05 112.28 563.09 113.68L558.01 123.84C555.56 122.15 553 120.83 550.33 119.9C547.66 118.97 545.1 118.5 542.65 118.5C538.97 118.5 536.13 119.11 534.11 120.32C532.1 121.53 531.09 123.23 531.09 125.42V125.46C531.09 127.3 531.62 128.75 532.67 129.82C533.72 130.89 535.02 131.67 536.57 132.16C538.12 132.66 540.29 133.18 543.09 133.74C543.21 133.77 543.32 133.79 543.44 133.81C543.56 133.82 543.67 133.85 543.79 133.88C543.96 133.91 544.13 133.95 544.29 133.99C544.45 134.03 544.62 134.07 544.79 134.1C548.82 134.89 552.18 135.84 554.88 136.97C557.58 138.09 559.83 139.9 561.64 142.4C563.45 144.9 564.35 148.3 564.35 152.62V152.71C564.35 156.77 563.4 160.24 561.5 163.13C559.6 166.02 556.84 168.22 553.2 169.74C549.57 171.26 545.19 172.02 540.09 172.02C537.06 171.99 534.09 171.68 531.19 171.07Z" fill="#2B7ABD"/>
<path fill-rule="evenodd" clip-rule="evenodd" d="M18.06 63.72C24.84 56.95 35.82 56.95 42.59 63.72C49.36 70.49 49.36 81.48 42.59 88.25C35.82 95.03 24.83 95.03 18.06 88.25C11.28 81.48 11.28 70.49 18.06 63.72ZM24.28 133.34C27.88 100.01 54.36 73.54 87.69 69.93L79.83 93.51C64.74 98.47 52.82 110.39 47.86 125.48L24.28 133.34Z" fill="#1B0E68"/>
<path fill-rule="evenodd" clip-rule="evenodd" d="M18.06 194.02C24.84 187.25 35.82 187.25 42.59 194.02C49.36 200.79 49.36 211.78 42.59 218.55C35.82 225.33 24.83 225.33 18.06 218.55C11.28 211.78 11.28 200.79 18.06 194.02ZM87.69 212.33C54.36 208.73 27.88 182.26 24.28 148.92L47.86 156.78C52.82 171.87 64.74 183.79 79.83 188.75L87.69 212.33Z" fill="#81016E"/>
<path fill-rule="evenodd" clip-rule="evenodd" d="M148.36 194.02C155.13 187.25 166.12 187.25 172.89 194.02C179.67 200.79 179.67 211.78 172.89 218.55C166.11 225.33 155.13 225.33 148.36 218.55C141.58 211.78 141.58 200.79 148.36 194.02ZM166.68 148.92C163.08 182.25 136.6 208.73 103.27 212.33L111.13 188.75C126.22 183.79 138.14 171.87 143.1 156.78L166.68 148.92Z" fill="#EAAF14"/>
<path fill-rule="evenodd" clip-rule="evenodd" d="M148.36 63.72C155.13 56.95 166.12 56.95 172.89 63.72C179.67 70.49 179.67 81.48 172.89 88.25C166.11 95.03 155.13 95.03 148.36 88.25C141.58 81.48 141.58 70.49 148.36 63.72ZM103.26 69.94C136.59 73.54 163.07 100.01 166.67 133.35L143.09 125.49C138.13 110.4 126.21 98.48 111.12 93.52L103.26 69.94Z" fill="#4D5B01"/>
<path fill-rule="evenodd" clip-rule="evenodd" d="M95.48 57.23L116.45 120.16L179.38 141.13L116.45 162.11L95.48 225.04L74.5 162.11L11.57 141.13L74.5 120.16L95.48 57.23Z" fill="#53A8D8"/>
<path fill-rule="evenodd" clip-rule="evenodd" d="M95.48 141.13V225.03L74.5 162.11L95.48 141.13L116.46 162.11L179.39 141.13H95.48ZM95.48 141.13V57.23L116.45 120.16L95.48 141.13H11.57L74.5 120.15L95.48 141.13Z" fill="#20558A"/>
</svg>
